<svg width="767" height="181" viewBox="0 0 767 181" fill="none" xmlns="http://www.w3.org/2000/svg">
<g clip-path="url(#clip0_17_23)">
<path d="M258.5 117.5C264.493 110.291 274.5 98.5 274.5 98.5V113.5C274.5 113.5 268.5 118.5 255.5 126C253.2 127.327 249 128 249 128C249 128 254.965 121.752 258.5 117.5Z" fill="#6C4961"/>
<path d="M1.35746 50.5714C1.08546 48.9393 0.949463 47.4434 0.949463 45.8113C0.949463 41.8674 1.90146 37.5153 3.94146 32.7554C5.84546 27.9953 9.51746 23.6433 14.8215 19.6994C20.1255 15.8914 27.1975 13.9874 35.7655 13.9874C56.4375 13.9874 71.2615 24.3233 84.7255 34.5233C94.5175 28.4034 106.485 24.7313 120.221 24.7313C128.789 24.7313 135.317 26.2273 140.077 29.3553C144.701 32.4833 147.557 35.6113 148.509 38.8753C149.461 42.1394 149.869 44.7234 149.869 46.7634C149.869 49.2114 149.325 52.2034 148.101 55.6034C146.877 59.0033 144.157 62.2674 140.077 65.3954C135.997 68.5234 130.965 70.0193 124.845 70.0193C109.749 70.0193 98.4615 63.7634 88.5335 56.5553C84.0455 62.5394 80.2375 69.0673 77.3815 76.0033C74.5255 82.9394 72.7575 88.5154 72.3495 92.4594C71.8055 96.5394 71.5335 99.3954 71.5335 100.891C71.5335 105.107 72.3495 108.915 74.1175 112.451C75.8855 115.987 79.4215 117.755 84.9975 117.755C101.861 117.755 108.933 91.5074 110.973 80.7634L111.653 76.5473H136.813C136.813 77.0913 128.653 180.315 54.8055 180.315C43.6535 180.315 34.9495 178.547 28.6935 174.875C22.3015 171.203 18.2215 167.259 16.4535 163.043C14.6855 158.691 13.7335 154.883 13.7335 151.619C13.7335 149.715 14.1415 146.859 15.0935 143.323C16.0455 139.651 18.6295 136.115 22.8455 132.443C27.0615 128.907 32.3655 127.139 38.7575 127.139C45.6935 127.139 53.7175 129.179 62.0135 137.475C58.0695 143.051 58.8855 145.771 58.8855 145.907C58.8855 150.939 62.8295 154.611 73.7095 154.611C79.4215 154.611 84.5895 152.435 89.2135 148.219C93.7015 144.003 97.7815 138.563 101.317 132.171C94.9255 136.523 87.9895 139.107 79.9655 139.107C72.2135 139.107 65.9575 136.931 61.1975 132.579C56.4375 128.227 53.1735 123.059 51.5415 117.211C50.0455 111.227 49.2295 105.515 49.2295 100.211C49.2295 97.6274 49.5015 93.5474 50.0455 87.9714C50.7255 82.3954 52.9015 75.5954 56.5735 67.2994C60.2455 59.1394 65.1415 51.6594 71.5335 44.9953C64.5975 40.6433 57.1175 37.6513 48.0055 37.6513C45.6935 37.6513 43.6535 38.4674 42.0215 39.9633C40.3895 41.4593 39.4375 42.8194 39.3015 44.0434C39.1655 45.1313 39.1655 45.8113 39.1655 46.0834C39.1655 49.4833 41.4775 52.8834 49.6375 52.8834L49.5015 54.6513C49.0935 59.1394 45.2855 70.4274 24.6135 70.4274C17.6775 70.4274 12.3735 68.5234 8.42946 64.5793C4.48546 60.7713 2.17346 56.1474 1.35746 50.5714ZM116.549 38.4674C110.701 38.4674 105.125 40.6433 99.8215 44.9953C106.893 49.4833 114.373 52.6113 122.533 52.6113C127.565 52.6113 130.693 49.2114 130.693 45.9474C130.693 45.8113 130.557 45.2673 130.557 44.3153C130.421 43.3633 129.333 42.1394 127.157 40.6433C124.981 39.1474 121.445 38.4674 116.549 38.4674Z" fill="#6C4961"/>
<path d="M122.5 137.475L129.663 123.059L130.887 121.835C133.335 119.387 139.183 110.955 147.615 89.4674C138.231 84.2994 139.319 76.5473 139.319 76.4113C139.319 72.7393 140.543 69.0674 141.767 66.7554L142.583 65.1234L162.983 68.7953L162.303 69.4753C160.671 71.5153 159.719 74.0993 159.719 75.0514C159.719 77.9074 161.895 82.6674 179.847 82.6674C194.399 82.6674 192.903 92.0514 192.903 92.8674C192.903 97.2194 191.271 103.067 188.959 109.187C186.919 114.627 185.967 118.299 185.967 120.475C185.967 121.835 185.831 124.419 189.775 124.419C193.855 124.419 196.303 121.155 197.391 119.251L197.935 118.435C201.607 118.435 203.511 119.251 203.647 120.747C203.647 122.243 203.783 123.059 203.783 123.195C203.783 128.635 198.751 136.387 190.183 142.099C185.831 144.955 181.071 146.451 175.767 146.451C169.919 146.451 165.975 145.227 164.071 142.779C162.031 140.331 161.079 137.339 161.079 134.075C161.079 132.987 160.807 128.635 164.071 119.523C165.567 115.035 167.199 110.683 168.967 106.739C172.095 99.1234 172.911 96.4034 172.911 95.1794C172.911 94.2274 172.503 93.8194 171.687 93.8194C167.063 93.8194 162.983 93.5474 159.583 93.0033C156.999 99.1234 153.055 106.603 148.023 115.579C142.855 124.555 128.348 131.627 122.5 137.475Z" fill="#6C4961"/>
<path d="M198.976 129.859C198.16 127.003 197.752 124.147 197.752 121.019C197.752 116.803 198.16 108.915 204.552 99.1234C210.944 89.4674 221.552 82.6674 236.24 82.6674C243.176 82.6674 248.752 84.1634 252.696 87.2914C256.64 90.4194 259.088 93.8194 260.04 97.4913C260.992 101.163 261.536 104.427 261.536 107.147C261.536 111.907 262.57 120.279 259.5 127C255.383 136.013 242.119 146.451 221.824 146.451C209.176 146.451 201.696 139.515 198.976 129.859ZM221.144 113.539C221.144 119.659 224.272 124.419 232.296 124.419C236.512 124.419 239.912 122.787 242.496 119.659C245.08 116.531 246.712 113.675 247.12 111.091C247.528 108.507 247.8 106.603 247.8 105.379C247.8 102.931 247.12 100.347 245.896 97.7634C244.672 95.1794 241.952 93.8194 237.736 93.8194C228.08 93.8194 221.144 104.835 221.144 113.539Z" fill="#6C4961"/>
<path d="M265.648 129.859C264.832 127.003 264.424 124.147 264.424 121.019C264.424 116.803 264.832 108.915 271.224 99.1234C277.616 89.4674 288.224 82.6674 302.912 82.6674C309.848 82.6674 315.424 84.1634 319.368 87.2914C323.312 90.4194 325.76 93.8194 326.712 97.4913C327.664 101.163 328.208 104.427 328.208 107.147C328.208 111.907 327.392 120.203 320.456 129.859C313.52 139.515 302.64 146.451 288.496 146.451C275.848 146.451 268.368 139.515 265.648 129.859ZM287.816 113.539C287.816 119.659 290.944 124.419 298.968 124.419C303.184 124.419 306.584 122.787 309.168 119.659C311.752 116.531 313.384 113.675 313.792 111.091C314.2 108.507 314.472 106.603 314.472 105.379C314.472 102.931 313.792 100.347 312.568 97.7634C311.344 95.1794 308.624 93.8194 304.408 93.8194C294.752 93.8194 287.816 104.835 287.816 113.539Z" fill="#6C4961"/>
<path d="M331.64 129.859C331.232 127.411 331.096 124.963 331.096 122.379C331.096 117.347 332.048 108.915 334.768 99.1234C335.992 94.3634 337.216 90.4194 338.304 87.2914L339.936 82.6674H358.976L357.888 86.8834C357.072 89.7394 356.256 93.2754 355.44 97.3554C354.624 101.435 354.08 104.699 353.944 107.283C353.808 109.867 353.672 111.635 353.672 112.587C353.672 115.443 354.08 118.163 354.896 120.611C355.576 123.195 357.344 124.419 359.928 124.419C362.784 124.419 365.64 122.243 368.496 118.027C371.352 113.811 374.072 108.915 376.52 103.475C378.832 98.0354 380.736 93.1393 382.232 88.9233L384.408 82.6674H395.288L393.656 89.1954C391.344 97.8994 386.584 111.363 379.376 123.875C375.704 130.267 371.488 135.571 366.592 139.923C361.696 144.275 356.12 146.451 349.728 146.451C337.896 146.451 332.864 139.515 331.64 129.859Z" fill="#6C4961"/>
<path d="M390.084 129.859C389.54 127.411 389.268 124.963 389.132 122.379C389.268 117.347 390.22 108.915 396.748 99.1234C403.276 89.4674 413.34 82.6674 425.716 82.6674C431.428 82.6674 435.508 84.1634 437.956 87.2914C440.404 90.2833 441.628 93.5473 441.628 96.9473C441.628 97.7633 441.356 99.6673 440.948 102.251C440.54 104.971 438.228 108.099 433.74 111.771C429.252 115.443 422.588 117.619 413.884 118.299C415.38 121.971 419.324 124.419 426.532 124.419C434.012 124.419 439.996 121.971 443.396 119.931L445.844 118.435C449.516 118.435 451.284 119.115 451.284 120.611C451.284 122.107 451.42 122.787 451.42 122.787C451.42 128.499 445.164 136.387 433.876 142.099C428.164 144.955 421.5 146.451 413.748 146.451C399.74 146.451 392.26 139.515 390.084 129.859ZM413.34 110.955C419.596 109.731 424.084 107.827 426.94 105.107C429.796 102.387 431.156 100.347 431.156 99.1234C431.156 97.8994 431.292 97.3554 431.292 97.2194C431.292 94.9074 430.204 93.8194 428.164 93.8194C425.308 93.8194 422.316 95.5873 419.324 99.1234C416.196 102.659 414.292 106.603 413.34 110.955Z" fill="#6C4961"/>
<path d="M19.6449 47.9056C19.3889 46.3696 19.2609 44.9616 19.2609 43.4256C19.2609 39.7136 20.1569 35.6176 22.0769 31.1376C23.8689 26.6576 27.3249 22.5616 32.3169 18.8496C37.3089 15.2656 43.9649 13.4736 52.0289 13.4736C71.4849 13.4736 85.4369 23.2016 98.1089 32.8016C107.325 27.0416 118.589 23.5856 131.517 23.5856C139.581 23.5856 145.725 24.9936 150.205 27.9376C154.557 30.8816 157.245 33.8256 158.141 36.8976C159.037 39.9696 159.421 42.4016 159.421 44.3216C159.421 46.6256 158.909 49.4416 157.757 52.6416C156.605 55.8416 154.045 58.9136 150.205 61.8576C146.365 64.8016 141.629 66.2096 135.869 66.2096C121.661 66.2096 111.037 60.3216 101.693 53.5376C97.4689 59.1696 93.8849 65.3136 91.1969 71.8416C88.5089 78.3696 86.8449 83.6176 86.4609 87.3296C85.9489 91.1696 85.6929 93.8576 85.6929 95.2656C85.6929 99.2336 86.4609 102.818 88.1249 106.146C89.7889 109.474 93.1169 111.138 98.3649 111.138C114.237 111.138 120.893 86.4336 122.813 76.3216L123.453 72.3536H147.133C147.133 72.8656 139.453 170.018 69.9489 170.018C59.4529 170.018 51.2609 168.354 45.3729 164.898C39.3569 161.442 35.5169 157.73 33.8529 153.762C32.1889 149.666 31.2929 146.082 31.2929 143.01C31.2929 141.218 31.6769 138.53 32.5729 135.202C33.4689 131.746 35.9009 128.418 39.8689 124.962C43.8369 121.634 48.8289 119.97 54.8449 119.97C61.3729 119.97 68.9249 121.89 76.7329 129.698C73.0209 134.946 73.7889 137.506 73.7889 137.634C73.7889 142.37 77.5009 145.826 87.7409 145.826C93.1169 145.826 97.9809 143.778 102.333 139.81C106.557 135.842 110.397 130.722 113.725 124.706C107.709 128.802 101.181 131.234 93.6289 131.234C86.3329 131.234 80.4449 129.186 75.9649 125.09C71.4849 120.994 68.4129 116.13 66.8769 110.626C65.4689 104.994 64.7009 99.6176 64.7009 94.6256C64.7009 92.1936 64.9569 88.3536 65.4689 83.1056C66.1089 77.8576 68.1569 71.4576 71.6129 63.6496C75.0689 55.9696 79.6769 48.9296 85.6929 42.6576C79.1649 38.5616 72.1249 35.7456 63.5489 35.7456C61.3729 35.7456 59.4529 36.5136 57.9169 37.9216C56.3809 39.3296 55.4849 40.6096 55.3569 41.7616C55.2289 42.7856 55.2289 43.4256 55.2289 43.6816C55.2289 46.8816 57.4049 50.0816 65.0849 50.0816L64.9569 51.7456C64.5729 55.9696 60.9889 66.5936 41.5329 66.5936C35.0049 66.5936 30.0129 64.8016 26.3009 61.0896C22.5889 57.5056 20.4129 53.1536 19.6449 47.9056ZM128.061 36.5136C122.557 36.5136 117.309 38.5616 112.317 42.6576C118.973 46.8816 126.013 49.8256 133.693 49.8256C138.429 49.8256 141.373 46.6256 141.373 43.5536C141.373 43.4256 141.245 42.9136 141.245 42.0176C141.117 41.1216 140.093 39.9696 138.045 38.5616C135.997 37.1536 132.669 36.5136 128.061 36.5136Z" fill="#D59B0B"/>
<path d="M116 150.379L124.535 139.81L129.663 131.458L141.555 114.978C143.859 112.674 149.363 104.738 157.299 84.5136C148.467 79.6496 149.491 72.3536 149.491 72.2256C149.491 68.7696 150.643 65.3136 151.795 63.1376L152.563 61.6016L171.763 65.0576L171.123 65.6976C169.587 67.6176 168.691 70.0496 168.691 70.9456C168.691 73.6336 170.739 78.1136 187.635 78.1136C201.331 78.1136 199.923 86.9456 199.923 87.7136C199.923 91.8096 198.387 97.3136 196.211 103.074C194.291 108.194 193.395 111.65 193.395 113.698C193.395 114.978 193.267 117.41 196.979 117.41C200.819 117.41 203.123 114.338 204.147 112.546L204.659 111.778C208.115 111.778 209.907 112.546 210.035 113.954C210.035 115.362 210.163 116.13 210.163 116.258C210.163 121.378 201 133.5 197.935 134.69C193.839 137.378 188.787 138.146 183.795 138.146C178.291 138.146 174.579 136.994 172.787 134.69C170.867 132.386 169.971 129.57 169.971 126.498C169.971 125.474 169.715 121.378 172.787 112.802C174.195 108.578 175.731 104.482 177.395 100.77C180.339 93.6016 181.107 91.0416 181.107 89.8896C181.107 88.9936 180.723 88.6096 179.955 88.6096C175.603 88.6096 171.763 88.3536 168.563 87.8416C166.131 93.6016 162.419 100.642 157.683 109.09C144.743 132.171 131 139 116 150.379Z" fill="#D59B0B"/>
<path d="M205.639 122.53C204.871 119.842 204.487 117.154 204.487 114.21C204.487 110.242 204.871 102.818 210.887 93.6016C216.903 84.5136 226.887 78.1136 240.711 78.1136C247.239 78.1136 252.487 79.5216 256.199 82.4656C259.911 85.4096 262.215 88.6096 263.111 92.0656C264.007 95.5216 264.519 98.5936 264.519 101.154C264.519 105.634 263.751 113.442 257.223 122.53C250.695 131.618 240.455 138.146 227.143 138.146C215.239 138.146 208.199 131.618 205.639 122.53ZM226.503 107.17C226.503 112.93 229.447 117.41 236.999 117.41C240.967 117.41 244.167 115.874 246.599 112.93C249.031 109.986 250.567 107.298 250.951 104.866C251.335 102.434 251.591 100.642 251.591 99.4896C251.591 97.1856 250.951 94.7536 249.799 92.3216C248.647 89.8896 246.087 88.6096 242.119 88.6096C233.031 88.6096 226.503 98.9776 226.503 107.17Z" fill="#D59B0B"/>
<path d="M268.389 122.53C267.621 119.842 267.237 117.154 267.237 114.21C267.237 110.242 267.621 102.818 273.637 93.6016C279.653 84.5136 289.637 78.1136 303.461 78.1136C309.989 78.1136 315.237 79.5216 318.949 82.4656C322.661 85.4096 324.965 88.6096 325.861 92.0656C326.757 95.5216 327.269 98.5936 327.269 101.154C327.269 105.634 326.501 113.442 319.973 122.53C313.445 131.618 303.205 138.146 289.893 138.146C277.989 138.146 270.949 131.618 268.389 122.53ZM289.253 107.17C289.253 112.93 292.197 117.41 299.749 117.41C303.717 117.41 306.917 115.874 309.349 112.93C311.781 109.986 313.317 107.298 313.701 104.866C314.085 102.434 314.341 100.642 314.341 99.4896C314.341 97.1856 313.701 94.7536 312.549 92.3216C311.397 89.8896 308.837 88.6096 304.869 88.6096C295.781 88.6096 289.253 98.9776 289.253 107.17Z" fill="#D59B0B"/>
<path d="M330.499 122.53C330.115 120.226 329.987 117.922 329.987 115.49C329.987 110.754 330.883 102.818 333.443 93.6016C334.595 89.1216 335.747 85.4096 336.771 82.4656L338.307 78.1136H356.227L355.203 82.0816C354.435 84.7696 353.667 88.0976 352.899 91.9376C352.131 95.7776 351.619 98.8496 351.491 101.282C351.363 103.714 351.235 105.378 351.235 106.274C351.235 108.962 351.619 111.522 352.387 113.826C353.027 116.258 354.691 117.41 357.123 117.41C359.811 117.41 362.499 115.362 365.187 111.394C367.875 107.426 370.435 102.818 372.739 97.6976C374.915 92.5776 376.707 87.9696 378.115 84.0016L380.163 78.1136H390.403L388.867 84.2576C386.691 92.4496 382.211 105.122 375.427 116.898C371.971 122.914 368.003 127.906 363.395 132.002C358.787 136.098 353.539 138.146 347.523 138.146C336.387 138.146 331.651 131.618 330.499 122.53Z" fill="#D59B0B"/>
<path d="M385.505 122.53C384.993 120.226 384.737 117.922 384.609 115.49C384.737 110.754 385.633 102.818 391.777 93.6016C397.921 84.5136 407.393 78.1136 419.041 78.1136C424.417 78.1136 428.257 79.5216 430.561 82.4656C432.865 85.2816 434.017 88.3536 434.017 91.5536C434.017 92.3216 433.761 94.1136 433.377 96.5456C432.993 99.1056 430.817 102.05 426.593 105.506C422.369 108.962 416.097 111.01 407.905 111.65C409.313 115.106 413.025 117.41 419.809 117.41C426.849 117.41 432.481 115.106 435.681 113.186L437.985 111.778C441.441 111.778 443.105 112.418 443.105 113.826C443.105 115.234 443.233 115.874 443.233 115.874C443.233 121.25 437.345 128.674 426.721 134.05C421.345 136.738 415.073 138.146 407.777 138.146C394.593 138.146 387.553 131.618 385.505 122.53ZM407.393 104.738C413.281 103.586 417.505 101.794 420.193 99.2336C422.881 96.6736 424.161 94.7536 424.161 93.6016C424.161 92.4496 424.289 91.9376 424.289 91.8096C424.289 89.6336 423.265 88.6096 421.345 88.6096C418.657 88.6096 415.841 90.2736 413.025 93.6016C410.081 96.9296 408.289 100.642 407.393 104.738Z" fill="#D59B0B"/>
<path d="M457.99 131.689C456.356 127.474 455.539 123.258 455.537 118.906C455.537 116.73 455.943 113.466 456.758 109.114C457.572 104.625 460.291 99.8644 465.049 94.6948C469.807 89.6612 474.838 86.3954 480.278 85.1696C485.853 83.9437 490.205 83.3982 493.469 83.397C499.453 83.395 506.118 84.4807 513.462 86.5182L512.919 88.9664C511.968 92.2307 511.833 95.9027 511.834 97.6707C511.836 101.887 512.383 110.999 522.175 110.995C530.199 110.992 535.908 102.014 541.207 88.8207C543.789 82.1558 546.506 74.9469 549.088 67.058C553.027 54.9526 557.511 43.2551 562.676 31.9653C555.468 32.5118 549.62 34.4178 545.133 37.5473C540.647 40.8129 537.656 43.9419 536.433 47.0703C535.21 50.1987 534.667 52.7829 534.667 54.6869C534.668 56.1829 535.076 58.0868 536.029 60.2624C536.982 62.5741 539.566 63.6612 543.782 63.6598L543.919 65.6997C543.921 71.1397 541.75 84.3325 523.526 84.3387C517.95 84.3406 513.597 82.7101 510.196 79.5833C506.795 76.4565 504.754 73.3292 504.073 70.0654C503.528 66.8016 503.255 64.3537 503.254 62.7217C503.252 55.7857 505.56 45.9929 515.621 36.1974C525.682 26.402 542.543 19.3242 567.431 19.3157C567.975 19.3155 568.519 19.3153 569.063 19.4511L569.879 19.4508C576.948 8.70441 585.921 1.90134 597.889 1.89723C602.513 1.89565 605.914 2.84648 608.226 4.74969C610.539 6.7889 611.764 8.42048 611.9 9.91643C612.037 11.4124 612.173 12.5003 612.173 12.9083C612.174 16.7163 609.864 21.0691 604.832 21.0709L603.88 20.1192C602.383 19.0317 599.799 17.4006 596.127 17.4018C593.135 17.4029 590.415 19.0358 588.104 22.4366C597.897 25.8332 604.427 30.047 607.557 35.2139C610.686 40.3808 612.184 45.0043 612.185 49.0843C612.186 51.5323 611.372 55.2046 609.605 59.8292C607.839 64.4538 602.4 68.8077 593.154 72.8909C599.954 75.3365 604.852 79.2789 607.846 84.7178C610.704 90.2928 612.202 96.1403 612.204 102.532C612.204 103.076 612.205 105.252 612.07 109.06C611.935 112.868 610.305 118.037 607.179 124.566C604.054 131.231 599.703 136.673 594.129 141.027C588.555 145.516 582.027 147.695 574.547 147.697C567.339 147.7 562.035 146.206 558.634 143.079C555.233 139.952 553.328 137.097 552.919 134.241C552.646 131.521 552.373 129.481 552.373 128.393C552.37 121.729 555.087 113.432 561.069 107.31C564.06 104.181 567.324 102.684 570.86 102.683L570.996 103.362C571.405 105.13 573.038 109.346 581.198 109.343C585.278 109.342 588.134 108.117 589.765 105.804C591.396 103.491 592.211 101.179 592.211 99.0032C592.21 97.9152 591.938 96.1473 591.393 93.8355C590.712 91.5237 588.263 88.9405 584.046 86.086C579.693 83.3675 573.437 81.8736 565.141 81.6045C558.755 99.5587 550.873 116.969 539.725 130.845C528.578 144.857 514.029 153.702 494.445 153.709C484.517 153.712 476.629 151.675 470.643 147.461C464.522 143.247 460.304 137.944 457.99 131.689ZM570.168 67.1867C577.103 66.0964 582.406 63.6465 585.941 59.8373C589.34 56.0282 591.106 52.0836 591.105 48.1396C591.105 47.4596 590.968 45.8276 590.695 43.2437C590.286 40.5238 587.158 37.6689 581.309 34.8149C578.455 42.0239 575.602 50.3209 572.477 59.978C571.662 62.2902 570.847 64.7385 570.168 67.1867Z" fill="#6C4961"/>
<path d="M617.435 124.427C616.618 121.571 616.209 118.715 616.207 115.587C616.206 111.371 616.611 103.483 623 93.6886C629.389 84.0304 639.994 77.2268 654.682 77.2218C661.618 77.2194 667.195 78.7135 671.14 81.8401C675.085 84.9668 677.534 88.3659 678.487 92.0376C679.441 95.7093 679.986 98.9731 679.987 101.693C679.988 106.453 679.175 114.749 672.242 124.408C665.31 134.066 654.432 141.006 640.288 141.011C627.64 141.015 620.158 134.082 617.435 124.427ZM639.597 108.099C639.599 114.219 642.729 118.978 650.753 118.975C654.969 118.974 658.368 117.341 660.951 114.212C663.534 111.083 665.165 108.226 665.572 105.642C665.979 103.058 666.251 101.154 666.25 99.9298C666.249 97.4818 665.568 94.898 664.344 92.3145C663.119 89.7309 660.398 88.3718 656.182 88.3733C646.526 88.3766 639.594 99.3949 639.597 108.099Z" fill="#6C4961"/>
<path d="M679.072 117.605L680.432 116.109C683.423 113.388 689.947 103.458 699.458 77.4784L699.458 77.3424L717.818 77.3361L718.364 81.5519C718.91 87.3998 720.817 96.3751 725.172 104.67C734.417 96.3704 740.398 87.5284 743.524 81.6793L745.698 77.3266L759.57 77.3218L756.716 83.0348C752.911 90.7881 745.299 103.303 734.287 115.274C737.96 118.129 742.585 119.624 748.297 119.622C755.097 119.619 758.767 115.946 759.991 113.906L760.67 112.953C763.798 112.952 765.567 113.768 765.703 115.4C765.976 117.032 766.112 118.12 766.112 118.528C766.114 123.56 762.581 130.905 754.015 136.62C749.8 139.477 744.496 140.975 738.376 140.977C728.72 140.98 721.511 136.767 716.069 130.649C706.279 136.772 694.992 140.992 682.344 140.996L686.147 126.579C684.38 128.756 682.613 130.66 680.845 132.293L679.072 117.605ZM691.856 118.825C697.432 118.415 702.464 117.325 707.087 115.556C705.046 110.525 703.548 105.629 702.458 100.733C699.332 106.854 695.798 112.84 691.856 118.825Z" fill="#6C4961"/>
<path d="M472.042 123.14C470.505 119.173 469.736 115.205 469.734 111.109C469.734 109.061 470.117 105.989 470.883 101.893C471.65 97.6684 474.208 93.1876 478.686 88.322C483.165 83.5845 487.9 80.5109 493.019 79.3571C498.267 78.2033 502.363 77.6899 505.435 77.6889C511.067 77.6869 517.339 78.7088 524.252 80.6264L523.741 82.9306C522.846 86.0029 522.719 89.4589 522.719 91.1229C522.721 95.0909 523.236 103.667 532.452 103.664C540.004 103.661 545.377 95.2112 550.365 82.7935C552.794 76.5206 555.352 69.7357 557.782 62.3109C561.49 50.9176 565.71 39.9082 570.57 29.2825C563.786 29.7968 558.283 31.5907 554.06 34.5362C549.837 37.6096 547.022 40.5546 545.871 43.499C544.72 46.4434 544.209 48.8756 544.21 50.6676C544.21 52.0756 544.595 53.8674 545.491 55.9151C546.388 58.0908 548.821 59.114 552.789 59.1126L552.917 61.0326C552.919 66.1526 550.875 78.5693 533.723 78.5752C528.475 78.577 524.379 77.0424 521.178 74.0995C517.977 71.1566 516.056 68.2132 515.415 65.1414C514.901 62.0696 514.645 59.7657 514.644 58.2297C514.642 51.7017 516.815 42.485 526.284 33.2657C535.752 24.0465 551.622 17.385 575.046 17.377C575.558 17.3768 576.07 17.3766 576.582 17.5045L577.35 17.5042C584.003 7.38992 592.449 0.987018 603.713 0.983156C608.065 0.981664 611.265 1.87656 613.441 3.66782C615.618 5.58708 616.771 7.12268 616.899 8.53064C617.028 9.93859 617.156 10.9625 617.156 11.3466C617.157 14.9306 614.983 19.0273 610.247 19.0289L609.35 18.1332C607.942 17.1097 605.51 15.5745 602.054 15.5757C599.238 15.5767 596.678 17.1136 594.503 20.3143C603.72 23.5112 609.866 27.477 612.811 32.34C615.757 37.203 617.166 41.5546 617.168 45.3945C617.169 47.6985 616.402 51.1548 614.739 55.5074C613.077 59.86 607.958 63.9577 599.255 67.8007C605.656 70.1025 610.266 73.8129 613.083 78.932C615.773 84.179 617.183 89.6825 617.185 95.6985C617.185 96.2105 617.186 98.2585 617.059 101.843C616.932 105.427 615.398 110.291 612.456 116.436C609.514 122.709 605.42 127.831 600.173 131.928C594.927 136.154 588.784 138.204 581.744 138.207C574.96 138.209 569.967 136.803 566.766 133.86C563.565 130.917 561.772 128.23 561.387 125.542C561.13 122.982 560.874 121.062 560.873 120.038C560.871 113.766 563.429 105.957 569.059 100.195C571.874 97.2501 574.945 95.841 578.273 95.8399L578.401 96.4798C578.786 98.1437 580.323 102.111 588.003 102.109C591.843 102.107 594.531 100.954 596.066 98.7778C597.601 96.6013 598.369 94.425 598.368 92.377C598.368 91.353 598.111 89.6891 597.598 87.5133C596.957 85.3375 594.653 82.9063 590.684 80.2196C586.587 77.661 580.698 76.2551 572.89 76.0017C566.88 92.8998 559.462 109.286 548.97 122.346C538.479 135.534 524.786 143.858 506.354 143.865C497.01 143.868 489.585 141.95 483.952 137.984C478.19 134.018 474.22 129.028 472.042 123.14ZM577.622 62.4321C584.149 61.4059 589.141 59.1002 592.467 55.515C595.666 51.9299 597.329 48.2173 597.328 44.5054C597.327 43.8654 597.199 42.3294 596.942 39.8975C596.557 37.3376 593.612 34.6506 588.107 31.9645C585.422 38.7494 582.736 46.5584 579.795 55.6474C579.028 57.8236 578.261 60.1279 577.622 62.4321Z" fill="#D59B0B"/>
<path d="M622.108 116.305C621.339 113.617 620.954 110.929 620.953 107.985C620.952 104.017 621.333 96.5931 627.346 87.3751C633.359 78.285 643.341 71.8816 657.165 71.8768C663.693 71.8746 668.941 73.2808 672.654 76.2235C676.367 79.1663 678.672 82.3655 679.57 85.8212C680.467 89.2769 680.98 92.3487 680.981 94.9087C680.982 99.3887 680.217 107.197 673.692 116.287C667.167 125.377 656.929 131.909 643.617 131.913C631.713 131.918 624.671 125.392 622.108 116.305ZM642.967 100.938C642.969 106.698 645.914 111.177 653.466 111.174C657.434 111.173 660.634 109.636 663.065 106.691C665.496 103.746 667.031 101.057 667.414 98.6253C667.797 96.1932 668.053 94.4011 668.052 93.2491C668.051 90.9451 667.411 88.5133 666.258 86.0817C665.105 83.6501 662.544 82.371 658.576 82.3724C649.488 82.3755 642.964 92.7457 642.967 100.938Z" fill="#D59B0B"/>
<path d="M680.12 109.885L681.399 108.477C684.215 105.916 690.355 96.5695 699.307 72.1184L699.307 71.9904L716.587 71.9845L717.1 75.9523C717.614 81.4561 719.409 89.9035 723.508 97.7101C732.209 89.8991 737.838 81.5772 740.78 76.0722L742.827 71.9755L755.883 71.971L753.197 77.3479C749.615 84.6451 742.451 96.4236 732.087 107.691C735.544 110.378 739.897 111.784 745.273 111.783C751.673 111.78 755.127 108.323 756.279 106.403L756.918 105.507C759.862 105.506 761.527 106.273 761.655 107.809C761.912 109.345 762.04 110.369 762.04 110.753C762.042 115.489 758.716 122.402 750.654 127.781C746.687 130.47 741.695 131.88 735.935 131.882C726.847 131.885 720.062 127.919 714.94 122.161C705.726 127.924 695.103 131.896 683.199 131.9L686.779 118.331C685.116 120.379 683.452 122.172 681.789 123.708L680.12 109.885ZM692.152 111.033C697.4 110.647 702.136 109.621 706.487 107.956C704.566 103.221 703.156 98.6131 702.13 94.0054C699.188 99.7664 695.862 105.4 692.152 111.033Z" fill="#D59B0B"/>
<path d="M128 131.5L133 131L129 138.5L121 146.5L114 152L128 131.5Z" fill="#D59B0B"/>
<path d="M659.51 135C662.019 133.494 682 115.5 682 115.5L681 132C681 132 680.01 134 671.51 137.5C663.01 141 651.5 139 651.5 139C651.5 139 657 136.506 659.51 135Z" fill="#6C4961"/>
<path d="M203 115.5L207 106.5L216 121L203 127V115.5Z" fill="#D59B0B"/>
<path d="M262.5 106.5C268.493 99.2915 278.5 87.5 278.5 87.5V102.5C278.5 102.5 272.5 107.5 259.5 115C257.2 116.327 253 117 253 117C253 117 258.965 110.752 262.5 106.5Z" fill="#D59B0B"/>
<path d="M665.5 122.5C675.5 116.5 684 105.5 684 105.5L683 122.5C683 122.5 682 124.5 673.5 128C665 131.5 656 129.5 656 129.5C656 129.5 655.5 128.5 665.5 122.5Z" fill="#D59B0B"/>
</g>
<defs>
<clipPath id="clip0_17_23">
<rect width="765.163" height="179.332" fill="white" transform="translate(0.949463 0.983154)"/>
</clipPath>
</defs>
</svg>
