<svg width="1006" height="932" viewBox="0 0 1006 932" fill="none" xmlns="http://www.w3.org/2000/svg">
<path d="M2 786.68V180.996L644 85.3198V691.003L2 786.68Z" fill="#5F5F5F" stroke="#666666" stroke-width="4"/>
<path d="M644.96 700.752V85.9148L967 210.146V832.386L644.96 700.752Z" fill="#5F5F5F" stroke="#666666" stroke-width="4"/>
<ellipse cx="486.195" cy="426.213" rx="348.921" ry="361.903" transform="rotate(-11.9298 486.195 426.213)" fill="#1F1F1F"/>
<ellipse cx="485.855" cy="425.624" rx="340.252" ry="352.912" transform="rotate(-11.9298 485.855 425.624)" fill="white"/>
<ellipse cx="497.389" cy="429.414" rx="341.456" ry="359.476" transform="rotate(-11.9298 497.389 429.414)" fill="#1F1F1F"/>
<ellipse cx="586.195" cy="459.213" rx="348.921" ry="361.903" transform="rotate(-11.9298 586.195 459.213)" fill="#1F1F1F" stroke="#666666" stroke-width="2"/>
<ellipse cx="585.855" cy="458.624" rx="340.252" ry="352.912" transform="rotate(-11.9298 585.855 458.624)" fill="white" stroke="#666666" stroke-width="2"/>
<ellipse cx="597.389" cy="462.414" rx="341.456" ry="359.476" transform="rotate(-11.9298 597.389 462.414)" fill="#1F1F1F" stroke="#666666" stroke-width="2"/>
<path d="M2 789.689V182.233L321.806 311.269V928.947L2 789.689Z" fill="#5F5F5F" stroke="#666666" stroke-width="4"/>
<path d="M325 928.672V310.037L967 212.327V830.963L325 928.672Z" fill="#5F5F5F" stroke="#666666" stroke-width="4"/>
<ellipse cx="653.275" cy="570.27" rx="284.609" ry="231.232" transform="rotate(-10.27 653.275 570.27)" fill="white"/>
<mask id="path-12-outside-1_0_1" maskUnits="userSpaceOnUse" x="592.373" y="505.566" width="239.519" height="234.685" fill="black">
<rect fill="white" x="592.373" y="505.566" width="239.519" height="234.685"/>
<path d="M627.518 709.491C624.449 704.471 622.426 699.261 621.416 693.688C620.911 690.901 620.677 686.626 620.712 680.864C620.715 674.927 623.094 668.2 627.991 660.477C632.919 652.929 638.606 647.581 645.288 644.752C652.145 641.89 657.592 640.184 661.772 639.426C669.435 638.038 678.221 637.885 688.1 638.793L687.971 642.055C687.509 646.455 688.187 651.189 688.597 653.454C689.576 658.853 692.387 670.395 704.926 668.123C715.202 666.261 720.434 653.441 724.166 635.317C725.929 626.183 727.739 616.321 729.218 605.62C731.46 589.204 734.494 573.185 738.493 557.53C729.388 559.899 722.341 563.694 717.32 568.742C712.329 573.963 709.224 578.663 708.382 582.953C707.54 587.242 707.443 590.678 707.885 593.116C708.232 595.032 709.196 597.376 710.921 599.941C712.676 602.681 716.238 603.475 721.637 602.497L722.284 605.078C723.547 612.044 723.821 629.443 700.483 633.672C693.342 634.965 687.39 633.885 682.31 630.668C677.23 627.452 673.892 623.919 672.264 619.897C670.81 615.843 669.894 612.771 669.515 610.681C667.906 601.799 668.594 588.723 679.21 573.848C689.826 558.973 709.782 546.003 741.654 540.228C742.35 540.102 743.047 539.976 743.775 540.024L744.82 539.834C751.384 524.434 761.301 513.644 776.627 510.867C782.549 509.794 787.124 510.224 790.527 512.126C793.961 514.202 795.907 516.008 796.428 517.892C796.949 519.776 797.376 521.138 797.471 521.66C798.354 526.537 796.403 532.647 789.959 533.814L788.519 532.816C786.351 531.77 782.663 530.279 777.961 531.131C774.129 531.826 771.024 534.547 768.853 539.437C782.181 541.519 791.52 545.404 796.724 551.296C801.929 557.189 804.918 562.763 805.865 567.988C806.433 571.123 806.24 576.015 805.049 582.347C803.857 588.678 797.901 595.514 787.004 602.885C796.281 604.442 803.466 608.357 808.559 614.629C813.511 621.107 816.783 628.249 818.267 636.435C818.393 637.131 818.898 639.918 819.607 644.826C820.317 649.734 819.426 656.731 816.935 665.817C814.475 675.077 810.164 683.053 804.033 689.92C797.934 696.961 790.079 701.263 780.5 702.998C771.269 704.671 764.13 703.986 759.05 700.769C753.97 697.552 750.869 694.336 749.684 690.774C748.704 687.353 747.883 684.804 747.63 683.411C746.084 674.877 747.642 663.622 753.885 654.396C756.991 649.696 760.824 647.022 765.352 646.202L765.684 647.041C766.617 649.211 769.685 654.231 780.135 652.338C785.36 651.391 788.733 649.161 790.287 645.821C791.84 642.482 792.349 639.332 791.844 636.545C791.592 635.152 790.833 632.951 789.6 630.116C788.193 627.313 784.458 624.572 778.396 621.893C772.192 619.419 763.833 618.955 753.146 620.532C749.126 645.005 743.064 669.128 732.001 689.48C720.97 710.007 704.385 724.704 679.306 729.248C666.592 731.552 656.017 730.77 647.375 726.759C638.56 722.78 631.93 716.966 627.518 709.491ZM756.245 600.903C764.875 597.9 771.099 593.535 774.744 587.837C778.215 582.172 779.564 576.711 778.648 571.66C778.491 570.789 777.938 568.731 776.99 565.485C775.836 562.096 771.168 559.165 763.016 556.864C761.031 566.758 759.299 578.044 757.533 591.136C757.025 594.286 756.548 597.61 756.245 600.903Z"/>
</mask>
<path d="M627.518 709.491C624.449 704.471 622.426 699.261 621.416 693.688C620.911 690.901 620.677 686.626 620.712 680.864C620.715 674.927 623.094 668.2 627.991 660.477C632.919 652.929 638.606 647.581 645.288 644.752C652.145 641.89 657.592 640.184 661.772 639.426C669.435 638.038 678.221 637.885 688.1 638.793L687.971 642.055C687.509 646.455 688.187 651.189 688.597 653.454C689.576 658.853 692.387 670.395 704.926 668.123C715.202 666.261 720.434 653.441 724.166 635.317C725.929 626.183 727.739 616.321 729.218 605.62C731.46 589.204 734.494 573.185 738.493 557.53C729.388 559.899 722.341 563.694 717.32 568.742C712.329 573.963 709.224 578.663 708.382 582.953C707.54 587.242 707.443 590.678 707.885 593.116C708.232 595.032 709.196 597.376 710.921 599.941C712.676 602.681 716.238 603.475 721.637 602.497L722.284 605.078C723.547 612.044 723.821 629.443 700.483 633.672C693.342 634.965 687.39 633.885 682.31 630.668C677.23 627.452 673.892 623.919 672.264 619.897C670.81 615.843 669.894 612.771 669.515 610.681C667.906 601.799 668.594 588.723 679.21 573.848C689.826 558.973 709.782 546.003 741.654 540.228C742.35 540.102 743.047 539.976 743.775 540.024L744.82 539.834C751.384 524.434 761.301 513.644 776.627 510.867C782.549 509.794 787.124 510.224 790.527 512.126C793.961 514.202 795.907 516.008 796.428 517.892C796.949 519.776 797.376 521.138 797.471 521.66C798.354 526.537 796.403 532.647 789.959 533.814L788.519 532.816C786.351 531.77 782.663 530.279 777.961 531.131C774.129 531.826 771.024 534.547 768.853 539.437C782.181 541.519 791.52 545.404 796.724 551.296C801.929 557.189 804.918 562.763 805.865 567.988C806.433 571.123 806.24 576.015 805.049 582.347C803.857 588.678 797.901 595.514 787.004 602.885C796.281 604.442 803.466 608.357 808.559 614.629C813.511 621.107 816.783 628.249 818.267 636.435C818.393 637.131 818.898 639.918 819.607 644.826C820.317 649.734 819.426 656.731 816.935 665.817C814.475 675.077 810.164 683.053 804.033 689.92C797.934 696.961 790.079 701.263 780.5 702.998C771.269 704.671 764.13 703.986 759.05 700.769C753.97 697.552 750.869 694.336 749.684 690.774C748.704 687.353 747.883 684.804 747.63 683.411C746.084 674.877 747.642 663.622 753.885 654.396C756.991 649.696 760.824 647.022 765.352 646.202L765.684 647.041C766.617 649.211 769.685 654.231 780.135 652.338C785.36 651.391 788.733 649.161 790.287 645.821C791.84 642.482 792.349 639.332 791.844 636.545C791.592 635.152 790.833 632.951 789.6 630.116C788.193 627.313 784.458 624.572 778.396 621.893C772.192 619.419 763.833 618.955 753.146 620.532C749.126 645.005 743.064 669.128 732.001 689.48C720.97 710.007 704.385 724.704 679.306 729.248C666.592 731.552 656.017 730.77 647.375 726.759C638.56 722.78 631.93 716.966 627.518 709.491ZM756.245 600.903C764.875 597.9 771.099 593.535 774.744 587.837C778.215 582.172 779.564 576.711 778.648 571.66C778.491 570.789 777.938 568.731 776.99 565.485C775.836 562.096 771.168 559.165 763.016 556.864C761.031 566.758 759.299 578.044 757.533 591.136C757.025 594.286 756.548 597.61 756.245 600.903Z" fill="#6C4961"/>
<path d="M627.518 709.491L628.379 708.983L628.375 708.976L628.371 708.97L627.518 709.491ZM620.712 680.864L621.712 680.87L621.712 680.864L620.712 680.864ZM627.991 660.477L627.153 659.931L627.146 659.942L627.991 660.477ZM645.288 644.752L644.903 643.829L644.898 643.831L645.288 644.752ZM688.1 638.793L689.099 638.833L689.136 637.885L688.191 637.798L688.1 638.793ZM687.971 642.055L688.966 642.159L688.969 642.127L688.97 642.094L687.971 642.055ZM724.166 635.317L725.145 635.518L725.148 635.506L724.166 635.317ZM729.218 605.62L730.209 605.757L730.209 605.755L729.218 605.62ZM738.493 557.53L739.462 557.778L739.881 556.135L738.241 556.562L738.493 557.53ZM717.32 568.742L716.611 568.036L716.604 568.043L716.597 568.051L717.32 568.742ZM710.921 599.941L711.762 599.402L711.757 599.393L711.751 599.384L710.921 599.941ZM721.637 602.497L722.607 602.253L722.379 601.346L721.459 601.513L721.637 602.497ZM722.284 605.078L723.268 604.899L723.262 604.867L723.254 604.834L722.284 605.078ZM672.264 619.897L671.323 620.235L671.33 620.254L671.337 620.272L672.264 619.897ZM679.21 573.848L680.024 574.429L679.21 573.848ZM743.775 540.024L743.71 541.022L743.833 541.03L743.954 541.008L743.775 540.024ZM744.82 539.834L744.999 540.818L745.529 540.722L745.74 540.226L744.82 539.834ZM790.527 512.126L791.044 511.27L791.029 511.261L791.014 511.253L790.527 512.126ZM796.428 517.892L795.464 518.158L795.464 518.158L796.428 517.892ZM789.959 533.814L789.39 534.636L789.73 534.872L790.138 534.798L789.959 533.814ZM788.519 532.816L789.089 531.994L789.024 531.949L788.954 531.915L788.519 532.816ZM768.853 539.437L767.939 539.032L767.409 540.224L768.698 540.425L768.853 539.437ZM805.049 582.347L804.066 582.162L805.049 582.347ZM787.004 602.885L786.444 602.056L784.373 603.457L786.839 603.871L787.004 602.885ZM808.559 614.629L809.354 614.022L809.345 614.01L809.336 613.998L808.559 614.629ZM819.607 644.826L820.597 644.683L819.607 644.826ZM816.935 665.817L815.97 665.552L815.968 665.56L816.935 665.817ZM804.033 689.92L803.287 689.254L803.282 689.26L803.278 689.265L804.033 689.92ZM759.05 700.769L758.515 701.614L759.05 700.769ZM749.684 690.774L748.722 691.049L748.728 691.069L748.735 691.089L749.684 690.774ZM753.885 654.396L754.714 654.956L754.72 654.947L753.885 654.396ZM765.352 646.202L766.282 645.834L765.981 645.072L765.174 645.218L765.352 646.202ZM765.684 647.041L764.754 647.409L764.76 647.423L764.766 647.436L765.684 647.041ZM790.287 645.821L791.194 646.243L790.287 645.821ZM789.6 630.116L790.517 629.717L790.506 629.692L790.494 629.668L789.6 630.116ZM778.396 621.893L778.801 620.978L778.784 620.971L778.767 620.964L778.396 621.893ZM753.146 620.532L753 619.543L752.278 619.649L752.159 620.37L753.146 620.532ZM732.001 689.48L731.122 689.003L731.12 689.007L732.001 689.48ZM647.375 726.759L647.796 725.852L647.787 725.848L647.375 726.759ZM756.245 600.903L755.249 600.811L755.107 602.358L756.574 601.847L756.245 600.903ZM774.744 587.837L775.586 588.376L775.592 588.368L775.597 588.36L774.744 587.837ZM776.99 565.485L777.95 565.205L777.944 565.183L777.937 565.163L776.99 565.485ZM763.016 556.864L763.288 555.902L762.248 555.608L762.036 556.667L763.016 556.864ZM757.533 591.136L758.521 591.295L758.523 591.282L758.524 591.269L757.533 591.136ZM628.371 708.97C625.363 704.049 623.387 698.955 622.4 693.509L620.432 693.866C621.465 699.567 623.535 704.893 626.664 710.013L628.371 708.97ZM622.4 693.509C621.913 690.818 621.677 686.62 621.712 680.87L619.712 680.858C619.676 686.633 619.91 690.984 620.432 693.866L622.4 693.509ZM621.712 680.864C621.715 675.191 623.991 668.652 628.835 661.013L627.146 659.942C622.197 667.748 619.715 674.663 619.712 680.863L621.712 680.864ZM628.828 661.024C633.685 653.585 639.233 648.402 645.678 645.672L644.898 643.831C637.978 646.761 632.153 652.273 627.153 659.931L628.828 661.024ZM645.673 645.675C652.495 642.828 657.868 641.15 661.95 640.41L661.593 638.443C657.315 639.218 651.795 640.953 644.903 643.829L645.673 645.675ZM661.95 640.41C669.498 639.043 678.189 638.886 688.008 639.789L688.191 637.798C678.254 636.884 669.372 637.033 661.593 638.443L661.95 640.41ZM687.1 638.754L686.972 642.015L688.97 642.094L689.099 638.833L687.1 638.754ZM686.977 641.95C686.5 646.495 687.198 651.341 687.613 653.632L689.581 653.275C689.176 651.038 688.519 646.416 688.966 642.159L686.977 641.95ZM687.613 653.632C688.105 656.343 689.081 660.779 691.619 664.255C692.9 666.01 694.595 667.542 696.839 668.473C699.086 669.405 701.812 669.704 705.105 669.107L704.748 667.139C701.771 667.679 699.443 667.387 697.605 666.625C695.766 665.862 694.345 664.597 693.234 663.075C690.987 659.998 690.068 655.963 689.581 653.275L687.613 653.632ZM705.105 669.107C710.662 668.1 714.748 664.134 717.881 658.291C721.011 652.457 723.274 644.605 725.145 635.518L723.186 635.115C721.326 644.153 719.108 651.774 716.119 657.346C713.135 662.91 709.467 666.284 704.748 667.139L705.105 669.107ZM725.148 635.506C726.912 626.367 728.726 616.484 730.209 605.757L728.228 605.483C726.752 616.158 724.946 625.999 723.184 635.127L725.148 635.506ZM730.209 605.755C732.447 589.373 735.473 573.391 739.462 557.778L737.524 557.283C733.514 572.978 730.474 589.036 728.227 605.485L730.209 605.755ZM738.241 556.562C729.01 558.964 721.788 562.832 716.611 568.036L718.028 569.447C722.894 564.556 729.767 560.834 738.745 558.498L738.241 556.562ZM716.597 568.051C711.573 573.307 708.299 578.18 707.401 582.76L709.363 583.145C710.148 579.145 713.086 574.618 718.042 569.432L716.597 568.051ZM707.401 582.76C706.545 587.119 706.429 590.69 706.901 593.294L708.869 592.938C708.457 590.666 708.535 587.366 709.363 583.145L707.401 582.76ZM706.901 593.294C707.279 595.379 708.31 597.85 710.09 600.499L711.751 599.384C710.083 596.901 709.186 594.685 708.869 592.938L706.901 593.294ZM710.079 600.481C712.187 603.772 716.339 604.473 721.815 603.481L721.459 601.513C716.136 602.477 713.165 601.591 711.762 599.402L710.079 600.481ZM720.667 602.74L721.314 605.321L723.254 604.834L722.607 602.253L720.667 602.74ZM721.3 605.256C721.914 608.64 722.27 614.494 719.703 619.977C717.169 625.392 711.702 630.622 700.305 632.688L700.661 634.656C712.602 632.492 718.667 626.909 721.514 620.825C724.33 614.81 723.917 608.481 723.268 604.899L721.3 605.256ZM700.305 632.688C693.374 633.943 687.684 632.888 682.845 629.824L681.775 631.513C687.096 634.883 693.31 635.988 700.661 634.656L700.305 632.688ZM682.845 629.824C677.869 626.672 674.714 623.283 673.191 619.522L671.337 620.272C673.071 624.555 676.592 628.231 681.775 631.513L682.845 629.824ZM673.205 619.559C671.755 615.516 670.862 612.508 670.499 610.503L668.531 610.86C668.925 613.035 669.865 616.17 671.323 620.235L673.205 619.559ZM670.499 610.503C668.934 601.864 669.578 589.066 680.024 574.429L678.396 573.267C667.611 588.379 666.877 601.734 668.531 610.86L670.499 610.503ZM680.024 574.429C690.449 559.821 710.14 546.954 741.832 541.212L741.476 539.244C709.423 545.052 689.203 558.124 678.396 573.267L680.024 574.429ZM741.832 541.212C742.547 541.083 743.124 540.983 743.71 541.022L743.841 539.026C742.97 538.969 742.154 539.121 741.476 539.244L741.832 541.212ZM743.954 541.008L744.999 540.818L744.642 538.85L743.597 539.04L743.954 541.008ZM745.74 540.226C752.228 525.004 761.93 514.546 776.806 511.85L776.449 509.883C760.672 512.741 750.54 523.865 743.9 539.442L745.74 540.226ZM776.806 511.85C782.613 510.798 786.921 511.256 790.039 512.999L791.014 511.253C787.327 509.192 782.485 508.789 776.449 509.883L776.806 511.85ZM790.009 512.981C791.696 514.001 792.97 514.927 793.875 515.8C794.78 516.674 795.268 517.448 795.464 518.158L797.392 517.625C797.067 516.451 796.321 515.381 795.264 514.361C794.207 513.341 792.792 512.326 791.044 511.27L790.009 512.981ZM795.464 518.158C795.727 519.106 795.966 519.927 796.148 520.562C796.338 521.224 796.45 521.638 796.487 521.839L798.455 521.482C798.396 521.16 798.248 520.632 798.071 520.011C797.885 519.364 797.651 518.562 797.392 517.625L795.464 518.158ZM796.487 521.839C796.896 524.096 796.64 526.612 795.575 528.668C794.527 530.691 792.681 532.305 789.781 532.83L790.138 534.798C793.681 534.156 796.033 532.131 797.351 529.588C798.651 527.079 798.929 524.102 798.455 521.482L796.487 521.839ZM790.529 532.992L789.089 531.994L787.949 533.638L789.39 534.636L790.529 532.992ZM788.954 531.915C786.715 530.835 782.794 529.239 777.782 530.147L778.139 532.115C782.533 531.319 785.987 532.704 788.085 533.717L788.954 531.915ZM777.782 530.147C773.53 530.918 770.2 533.939 767.939 539.032L769.767 539.843C771.849 535.155 774.728 532.733 778.139 532.115L777.782 530.147ZM768.698 540.425C781.957 542.497 791.006 546.333 795.975 551.958L797.474 550.634C792.033 544.475 782.405 540.542 769.007 538.449L768.698 540.425ZM795.975 551.958C801.106 557.767 803.977 563.18 804.881 568.166L806.849 567.81C805.859 562.346 802.753 556.61 797.474 550.634L795.975 551.958ZM804.881 568.166C805.417 571.124 805.248 575.876 804.066 582.162L806.031 582.531C807.231 576.154 807.449 571.121 806.849 567.81L804.881 568.166ZM804.066 582.162C802.955 588.068 797.313 594.704 786.444 602.056L787.565 603.713C798.489 596.323 804.76 589.289 806.031 582.531L804.066 582.162ZM786.839 603.871C795.917 605.395 802.868 609.206 807.783 615.259L809.336 613.998C804.064 607.507 796.644 603.489 787.17 601.899L786.839 603.871ZM807.765 615.236C812.625 621.594 815.829 628.591 817.283 636.613L819.251 636.256C817.738 627.907 814.397 620.619 809.354 614.022L807.765 615.236ZM817.283 636.613C817.407 637.301 817.91 640.075 818.617 644.969L820.597 644.683C819.885 639.76 819.378 636.962 819.251 636.256L817.283 636.613ZM818.617 644.969C819.297 649.668 818.452 656.501 815.97 665.552L817.899 666.081C820.4 656.961 821.337 649.801 820.597 644.683L818.617 644.969ZM815.968 665.56C813.548 674.67 809.312 682.506 803.287 689.254L804.779 690.586C811.016 683.6 815.402 675.483 817.901 666.073L815.968 665.56ZM803.278 689.265C797.339 696.121 789.694 700.316 780.322 702.014L780.678 703.982C790.464 702.209 798.529 697.802 804.789 690.575L803.278 689.265ZM780.322 702.014C771.195 703.668 764.356 702.945 759.585 699.924L758.515 701.614C763.904 705.026 771.344 705.674 780.678 703.982L780.322 702.014ZM759.585 699.924C754.575 696.751 751.709 693.694 750.633 690.458L748.735 691.089C750.029 694.979 753.365 698.353 758.515 701.614L759.585 699.924ZM750.645 690.498C749.645 687.005 748.855 684.56 748.614 683.232L746.646 683.589C746.91 685.048 747.764 687.702 748.722 691.049L750.645 690.498ZM748.614 683.232C747.11 674.932 748.63 663.947 754.714 654.956L753.057 653.835C746.655 663.296 745.058 674.821 746.646 683.589L748.614 683.232ZM754.72 654.947C757.704 650.431 761.318 647.949 765.531 647.186L765.174 645.218C760.33 646.096 756.279 648.96 753.051 653.844L754.72 654.947ZM764.422 646.57L764.754 647.409L766.614 646.673L766.282 645.834L764.422 646.57ZM764.766 647.436C765.28 648.632 766.395 650.639 768.833 652.075C771.279 653.515 774.916 654.3 780.313 653.322L779.957 651.354C774.904 652.269 771.782 651.49 769.848 650.351C767.907 649.208 767.021 647.62 766.603 646.646L764.766 647.436ZM780.313 653.322C785.725 652.341 789.455 649.981 791.194 646.243L789.38 645.4C788.012 648.34 784.995 650.441 779.957 651.354L780.313 653.322ZM791.194 646.243C792.811 642.766 793.378 639.404 792.828 636.367L790.86 636.723C791.32 639.259 790.869 642.198 789.38 645.4L791.194 646.243ZM792.828 636.367C792.554 634.854 791.756 632.565 790.517 629.717L788.683 630.515C789.91 633.337 790.629 635.45 790.86 636.723L792.828 636.367ZM790.494 629.668C789.693 628.073 788.274 626.575 786.335 625.152C784.391 623.725 781.872 622.336 778.801 620.978L777.992 622.808C780.982 624.129 783.362 625.451 785.152 626.764C786.948 628.082 788.099 629.356 788.706 630.565L790.494 629.668ZM778.767 620.964C772.328 618.397 763.767 617.954 753 619.543L753.292 621.521C763.899 619.956 772.056 620.442 778.026 622.822L778.767 620.964ZM752.159 620.37C748.146 644.802 742.106 668.796 731.122 689.003L732.88 689.958C744.021 669.46 750.106 645.208 754.133 620.694L752.159 620.37ZM731.12 689.007C720.206 709.317 703.855 723.784 679.128 728.265L679.484 730.232C704.916 725.624 721.734 710.698 732.882 689.954L731.12 689.007ZM679.128 728.265C666.541 730.545 656.192 729.749 647.796 725.852L646.954 727.666C655.842 731.791 666.643 732.559 679.484 730.232L679.128 728.265ZM647.787 725.848C639.141 721.945 632.677 716.264 628.379 708.983L626.656 709.999C631.183 717.668 637.979 723.615 646.964 727.671L647.787 725.848ZM756.574 601.847C765.338 598.798 771.783 594.322 775.586 588.376L773.902 587.299C770.416 592.747 764.412 597.002 755.917 599.958L756.574 601.847ZM775.597 588.36C779.153 582.554 780.604 576.844 779.632 571.482L777.664 571.838C778.523 576.578 777.276 581.79 773.891 587.315L775.597 588.36ZM779.632 571.482C779.463 570.548 778.893 568.433 777.95 565.205L776.03 565.765C776.983 569.029 777.518 571.031 777.664 571.838L779.632 571.482ZM777.937 565.163C777.255 563.161 775.583 561.422 773.154 559.916C770.715 558.405 767.412 557.066 763.288 555.902L762.744 557.827C766.772 558.963 769.879 560.24 772.101 561.617C774.332 562.999 775.571 564.421 776.043 565.807L777.937 565.163ZM762.036 556.667C760.044 566.592 758.309 577.903 756.542 591.002L758.524 591.269C760.289 578.186 762.018 566.923 763.997 557.061L762.036 556.667ZM756.546 590.976C756.036 594.137 755.555 597.486 755.249 600.811L757.241 600.994C757.541 597.734 758.014 594.435 758.521 591.295L756.546 590.976Z" fill="#D59B0B" mask="url(#path-12-outside-1_0_1)"/>
<path d="M489.229 507.606C488.502 505.579 487.981 503.695 487.603 501.605C486.687 496.554 486.897 490.76 488.405 484.191C489.738 477.653 493.431 471.228 499.308 464.946C505.217 458.839 513.832 454.76 524.804 452.772C551.277 447.975 572.659 457.772 592.268 467.71C603.388 457.601 617.863 450.121 635.453 446.934C646.426 444.946 655.133 445.347 661.954 448.248C668.601 451.181 672.985 454.524 674.961 458.483C676.938 462.442 678.06 465.657 678.533 468.269C679.101 471.404 679.099 475.362 678.32 480C677.542 484.638 674.816 489.449 670.317 494.402C665.818 499.354 659.721 502.438 651.883 503.858C632.551 507.36 616.644 501.968 602.257 495.041C597.898 503.746 594.536 512.989 592.488 522.534C590.44 532.079 589.47 539.63 589.863 544.776C590.113 550.127 590.427 553.847 590.774 555.763C591.752 561.162 593.681 565.849 596.766 569.968C599.85 574.086 604.789 575.529 611.93 574.235C633.526 570.322 636.492 535.068 636.611 520.835L636.504 515.278L668.724 509.44C668.851 510.137 682.352 644.221 587.781 661.357C573.5 663.944 561.943 663.7 553.079 660.449C544.042 657.23 537.902 653.126 534.659 648.137C531.385 642.974 529.282 638.318 528.525 634.138C528.083 631.7 527.943 627.948 528.342 623.198C528.709 618.275 531.198 613.147 535.745 607.467C540.323 601.96 546.705 598.465 554.891 596.982C563.773 595.373 574.523 596.123 587.072 604.822C583.315 612.878 584.991 616.172 585.022 616.346C586.19 622.79 592.093 626.578 606.026 624.053C613.341 622.728 619.454 618.742 624.397 612.27C629.167 605.829 633.129 597.916 636.174 588.91C628.998 595.966 620.716 600.885 610.44 602.747C600.513 604.545 591.996 603.21 584.89 598.742C577.785 594.273 572.406 588.412 568.959 581.302C565.655 573.986 563.284 566.86 562.054 560.068C561.454 556.759 560.856 551.47 560.258 544.204C559.835 536.905 561.044 527.692 563.822 516.216C566.631 504.914 571.165 494.199 577.804 484.182C567.912 480.218 557.639 478.122 545.97 480.236C543.009 480.773 540.586 482.291 538.843 484.585C537.1 486.88 536.197 488.842 536.307 490.441C536.385 491.866 536.543 492.737 536.606 493.085C537.395 497.44 541.144 501.257 551.594 499.364L551.83 501.66C552.349 507.502 550.092 522.841 523.619 527.637C514.736 529.247 507.502 528.039 501.536 523.904C495.602 519.942 491.568 514.557 489.229 507.606ZM633.938 465.376C626.449 466.733 619.813 470.814 614.031 477.618C624.128 481.724 634.433 483.994 644.883 482.101C651.327 480.933 654.544 475.854 653.787 471.674C653.755 471.499 653.455 470.834 653.234 469.615C652.839 468.428 651.161 467.113 648.028 465.702C644.894 464.291 640.208 464.24 633.938 465.376Z" fill="#6C4961"/>
<mask id="path-15-outside-2_0_1" maskUnits="userSpaceOnUse" x="607.373" y="495.566" width="239.519" height="234.685" fill="black">
<rect fill="white" x="607.373" y="495.566" width="239.519" height="234.685"/>
<path d="M642.518 699.491C639.449 694.471 637.426 689.261 636.416 683.688C635.911 680.901 635.677 676.626 635.712 670.864C635.715 664.927 638.094 658.2 642.991 650.477C647.919 642.929 653.606 637.581 660.288 634.752C667.145 631.89 672.592 630.184 676.772 629.426C684.435 628.038 693.221 627.885 703.1 628.793L702.971 632.055C702.509 636.455 703.187 641.189 703.597 643.454C704.576 648.853 707.387 660.395 719.926 658.123C730.202 656.261 735.434 643.441 739.166 625.317C740.929 616.183 742.739 606.321 744.218 595.62C746.46 579.204 749.494 563.185 753.493 547.53C744.388 549.899 737.341 553.694 732.32 558.742C727.329 563.963 724.224 568.663 723.382 572.953C722.54 577.242 722.443 580.678 722.885 583.116C723.232 585.032 724.196 587.376 725.921 589.941C727.676 592.681 731.238 593.475 736.637 592.497L737.284 595.078C738.547 602.044 738.821 619.443 715.483 623.672C708.342 624.965 702.39 623.885 697.31 620.668C692.23 617.452 688.892 613.919 687.264 609.897C685.81 605.843 684.894 602.771 684.515 600.681C682.906 591.799 683.594 578.723 694.21 563.848C704.826 548.973 724.782 536.003 756.654 530.228C757.35 530.102 758.047 529.976 758.775 530.024L759.82 529.834C766.384 514.434 776.301 503.644 791.627 500.867C797.549 499.794 802.124 500.224 805.527 502.126C808.961 504.202 810.907 506.008 811.428 507.892C811.949 509.776 812.376 511.138 812.471 511.66C813.354 516.537 811.403 522.647 804.959 523.814L803.519 522.816C801.351 521.77 797.663 520.279 792.961 521.131C789.129 521.826 786.024 524.547 783.853 529.437C797.181 531.519 806.52 535.404 811.724 541.296C816.929 547.189 819.918 552.763 820.865 557.988C821.433 561.123 821.24 566.015 820.049 572.347C818.857 578.678 812.901 585.514 802.004 592.885C811.281 594.442 818.466 598.357 823.559 604.629C828.511 611.107 831.783 618.249 833.267 626.435C833.393 627.131 833.898 629.918 834.607 634.826C835.317 639.734 834.426 646.731 831.935 655.817C829.475 665.077 825.164 673.053 819.033 679.92C812.934 686.961 805.079 691.263 795.5 692.998C786.269 694.671 779.13 693.986 774.05 690.769C768.97 687.552 765.869 684.336 764.684 680.774C763.704 677.353 762.883 674.804 762.63 673.411C761.084 664.877 762.642 653.622 768.885 644.396C771.991 639.696 775.824 637.022 780.352 636.202L780.684 637.041C781.617 639.211 784.685 644.231 795.135 642.338C800.36 641.391 803.733 639.161 805.287 635.821C806.84 632.482 807.349 629.332 806.844 626.545C806.592 625.152 805.833 622.951 804.6 620.116C803.193 617.313 799.458 614.572 793.396 611.893C787.192 609.419 778.833 608.955 768.146 610.532C764.126 635.005 758.064 659.128 747.001 679.48C735.97 700.007 719.385 714.704 694.306 719.248C681.592 721.552 671.017 720.77 662.375 716.759C653.56 712.78 646.93 706.966 642.518 699.491ZM771.245 590.903C779.875 587.9 786.099 583.535 789.744 577.837C793.215 572.172 794.564 566.711 793.648 561.66C793.491 560.789 792.938 558.731 791.99 555.485C790.836 552.096 786.168 549.165 778.016 546.864C776.031 556.758 774.299 568.044 772.533 581.136C772.025 584.286 771.548 587.61 771.245 590.903Z"/>
</mask>
<path d="M642.518 699.491C639.449 694.471 637.426 689.261 636.416 683.688C635.911 680.901 635.677 676.626 635.712 670.864C635.715 664.927 638.094 658.2 642.991 650.477C647.919 642.929 653.606 637.581 660.288 634.752C667.145 631.89 672.592 630.184 676.772 629.426C684.435 628.038 693.221 627.885 703.1 628.793L702.971 632.055C702.509 636.455 703.187 641.189 703.597 643.454C704.576 648.853 707.387 660.395 719.926 658.123C730.202 656.261 735.434 643.441 739.166 625.317C740.929 616.183 742.739 606.321 744.218 595.62C746.46 579.204 749.494 563.185 753.493 547.53C744.388 549.899 737.341 553.694 732.32 558.742C727.329 563.963 724.224 568.663 723.382 572.953C722.54 577.242 722.443 580.678 722.885 583.116C723.232 585.032 724.196 587.376 725.921 589.941C727.676 592.681 731.238 593.475 736.637 592.497L737.284 595.078C738.547 602.044 738.821 619.443 715.483 623.672C708.342 624.965 702.39 623.885 697.31 620.668C692.23 617.452 688.892 613.919 687.264 609.897C685.81 605.843 684.894 602.771 684.515 600.681C682.906 591.799 683.594 578.723 694.21 563.848C704.826 548.973 724.782 536.003 756.654 530.228C757.35 530.102 758.047 529.976 758.775 530.024L759.82 529.834C766.384 514.434 776.301 503.644 791.627 500.867C797.549 499.794 802.124 500.224 805.527 502.126C808.961 504.202 810.907 506.008 811.428 507.892C811.949 509.776 812.376 511.138 812.471 511.66C813.354 516.537 811.403 522.647 804.959 523.814L803.519 522.816C801.351 521.77 797.663 520.279 792.961 521.131C789.129 521.826 786.024 524.547 783.853 529.437C797.181 531.519 806.52 535.404 811.724 541.296C816.929 547.189 819.918 552.763 820.865 557.988C821.433 561.123 821.24 566.015 820.049 572.347C818.857 578.678 812.901 585.514 802.004 592.885C811.281 594.442 818.466 598.357 823.559 604.629C828.511 611.107 831.783 618.249 833.267 626.435C833.393 627.131 833.898 629.918 834.607 634.826C835.317 639.734 834.426 646.731 831.935 655.817C829.475 665.077 825.164 673.053 819.033 679.92C812.934 686.961 805.079 691.263 795.5 692.998C786.269 694.671 779.13 693.986 774.05 690.769C768.97 687.552 765.869 684.336 764.684 680.774C763.704 677.353 762.883 674.804 762.63 673.411C761.084 664.877 762.642 653.622 768.885 644.396C771.991 639.696 775.824 637.022 780.352 636.202L780.684 637.041C781.617 639.211 784.685 644.231 795.135 642.338C800.36 641.391 803.733 639.161 805.287 635.821C806.84 632.482 807.349 629.332 806.844 626.545C806.592 625.152 805.833 622.951 804.6 620.116C803.193 617.313 799.458 614.572 793.396 611.893C787.192 609.419 778.833 608.955 768.146 610.532C764.126 635.005 758.064 659.128 747.001 679.48C735.97 700.007 719.385 714.704 694.306 719.248C681.592 721.552 671.017 720.77 662.375 716.759C653.56 712.78 646.93 706.966 642.518 699.491ZM771.245 590.903C779.875 587.9 786.099 583.535 789.744 577.837C793.215 572.172 794.564 566.711 793.648 561.66C793.491 560.789 792.938 558.731 791.99 555.485C790.836 552.096 786.168 549.165 778.016 546.864C776.031 556.758 774.299 568.044 772.533 581.136C772.025 584.286 771.548 587.61 771.245 590.903Z" fill="#D59B0B"/>
<path d="M642.518 699.491L643.379 698.983L643.375 698.976L643.371 698.97L642.518 699.491ZM635.712 670.864L636.712 670.87L636.712 670.864L635.712 670.864ZM642.991 650.477L642.153 649.931L642.146 649.942L642.991 650.477ZM660.288 634.752L659.903 633.829L659.898 633.831L660.288 634.752ZM703.1 628.793L704.099 628.833L704.136 627.885L703.191 627.798L703.1 628.793ZM702.971 632.055L703.966 632.159L703.969 632.127L703.97 632.094L702.971 632.055ZM739.166 625.317L740.145 625.518L740.148 625.506L739.166 625.317ZM744.218 595.62L745.209 595.757L745.209 595.755L744.218 595.62ZM753.493 547.53L754.462 547.778L754.881 546.135L753.241 546.562L753.493 547.53ZM732.32 558.742L731.611 558.036L731.604 558.043L731.597 558.051L732.32 558.742ZM725.921 589.941L726.762 589.402L726.757 589.393L726.751 589.384L725.921 589.941ZM736.637 592.497L737.607 592.253L737.379 591.346L736.459 591.513L736.637 592.497ZM737.284 595.078L738.268 594.899L738.262 594.867L738.254 594.834L737.284 595.078ZM687.264 609.897L686.323 610.235L686.33 610.254L686.337 610.272L687.264 609.897ZM694.21 563.848L695.024 564.429L694.21 563.848ZM758.775 530.024L758.71 531.022L758.833 531.03L758.954 531.008L758.775 530.024ZM759.82 529.834L759.999 530.818L760.529 530.722L760.74 530.226L759.82 529.834ZM805.527 502.126L806.044 501.27L806.029 501.261L806.014 501.253L805.527 502.126ZM811.428 507.892L810.464 508.158L810.464 508.158L811.428 507.892ZM804.959 523.814L804.39 524.636L804.73 524.872L805.138 524.798L804.959 523.814ZM803.519 522.816L804.089 521.994L804.024 521.949L803.954 521.915L803.519 522.816ZM783.853 529.437L782.939 529.032L782.409 530.224L783.698 530.425L783.853 529.437ZM820.049 572.347L819.066 572.162L820.049 572.347ZM802.004 592.885L801.444 592.056L799.373 593.457L801.839 593.871L802.004 592.885ZM823.559 604.629L824.354 604.022L824.345 604.01L824.336 603.998L823.559 604.629ZM834.607 634.826L835.597 634.683L834.607 634.826ZM831.935 655.817L830.97 655.552L830.968 655.56L831.935 655.817ZM819.033 679.92L818.287 679.254L818.282 679.26L818.278 679.265L819.033 679.92ZM774.05 690.769L773.515 691.614L774.05 690.769ZM764.684 680.774L763.722 681.049L763.728 681.069L763.735 681.089L764.684 680.774ZM768.885 644.396L769.714 644.956L769.72 644.947L768.885 644.396ZM780.352 636.202L781.282 635.834L780.981 635.072L780.174 635.218L780.352 636.202ZM780.684 637.041L779.754 637.409L779.76 637.423L779.766 637.436L780.684 637.041ZM805.287 635.821L806.194 636.243L805.287 635.821ZM804.6 620.116L805.517 619.717L805.506 619.692L805.494 619.668L804.6 620.116ZM793.396 611.893L793.801 610.978L793.784 610.971L793.767 610.964L793.396 611.893ZM768.146 610.532L768 609.543L767.278 609.649L767.159 610.37L768.146 610.532ZM747.001 679.48L746.122 679.003L746.12 679.007L747.001 679.48ZM662.375 716.759L662.796 715.852L662.787 715.848L662.375 716.759ZM771.245 590.903L770.249 590.811L770.107 592.358L771.574 591.847L771.245 590.903ZM789.744 577.837L790.586 578.376L790.592 578.368L790.597 578.36L789.744 577.837ZM791.99 555.485L792.95 555.205L792.944 555.183L792.937 555.163L791.99 555.485ZM778.016 546.864L778.288 545.902L777.248 545.608L777.036 546.667L778.016 546.864ZM772.533 581.136L773.521 581.295L773.523 581.282L773.524 581.269L772.533 581.136ZM643.371 698.97C640.363 694.049 638.387 688.955 637.4 683.509L635.432 683.866C636.465 689.567 638.535 694.893 641.664 700.013L643.371 698.97ZM637.4 683.509C636.913 680.818 636.677 676.62 636.712 670.87L634.712 670.858C634.676 676.633 634.91 680.984 635.432 683.866L637.4 683.509ZM636.712 670.864C636.715 665.191 638.991 658.652 643.835 651.013L642.146 649.942C637.197 657.748 634.715 664.663 634.712 670.863L636.712 670.864ZM643.828 651.024C648.685 643.585 654.233 638.402 660.678 635.672L659.898 633.831C652.978 636.761 647.153 642.273 642.153 649.931L643.828 651.024ZM660.673 635.675C667.495 632.828 672.868 631.15 676.95 630.41L676.593 628.443C672.315 629.218 666.795 630.953 659.903 633.829L660.673 635.675ZM676.95 630.41C684.498 629.043 693.189 628.886 703.008 629.789L703.191 627.798C693.254 626.884 684.372 627.033 676.593 628.443L676.95 630.41ZM702.1 628.754L701.972 632.015L703.97 632.094L704.099 628.833L702.1 628.754ZM701.977 631.95C701.5 636.495 702.198 641.341 702.613 643.632L704.581 643.275C704.176 641.038 703.519 636.416 703.966 632.159L701.977 631.95ZM702.613 643.632C703.105 646.343 704.081 650.779 706.619 654.255C707.9 656.01 709.595 657.542 711.839 658.473C714.086 659.405 716.812 659.704 720.105 659.107L719.748 657.139C716.771 657.679 714.443 657.387 712.605 656.625C710.766 655.862 709.345 654.597 708.234 653.075C705.987 649.998 705.068 645.963 704.581 643.275L702.613 643.632ZM720.105 659.107C725.662 658.1 729.748 654.134 732.881 648.291C736.011 642.457 738.274 634.605 740.145 625.518L738.186 625.115C736.326 634.153 734.108 641.774 731.119 647.346C728.135 652.91 724.467 656.284 719.748 657.139L720.105 659.107ZM740.148 625.506C741.912 616.367 743.726 606.484 745.209 595.757L743.228 595.483C741.752 606.158 739.946 615.999 738.184 625.127L740.148 625.506ZM745.209 595.755C747.447 579.373 750.473 563.391 754.462 547.778L752.524 547.283C748.514 562.978 745.474 579.036 743.227 595.485L745.209 595.755ZM753.241 546.562C744.01 548.964 736.788 552.832 731.611 558.036L733.028 559.447C737.894 554.556 744.767 550.834 753.745 548.498L753.241 546.562ZM731.597 558.051C726.573 563.307 723.299 568.18 722.401 572.76L724.363 573.145C725.148 569.145 728.086 564.618 733.042 559.432L731.597 558.051ZM722.401 572.76C721.545 577.119 721.429 580.69 721.901 583.294L723.869 582.938C723.457 580.666 723.535 577.366 724.363 573.145L722.401 572.76ZM721.901 583.294C722.279 585.379 723.31 587.85 725.09 590.499L726.751 589.384C725.083 586.901 724.186 584.685 723.869 582.938L721.901 583.294ZM725.079 590.481C727.187 593.772 731.339 594.473 736.815 593.481L736.459 591.513C731.136 592.477 728.165 591.591 726.762 589.402L725.079 590.481ZM735.667 592.74L736.314 595.321L738.254 594.834L737.607 592.253L735.667 592.74ZM736.3 595.256C736.914 598.64 737.27 604.494 734.703 609.977C732.169 615.392 726.702 620.622 715.305 622.688L715.661 624.656C727.602 622.492 733.667 616.909 736.514 610.825C739.33 604.81 738.917 598.481 738.268 594.899L736.3 595.256ZM715.305 622.688C708.374 623.943 702.684 622.888 697.845 619.824L696.775 621.513C702.096 624.883 708.31 625.988 715.661 624.656L715.305 622.688ZM697.845 619.824C692.869 616.672 689.714 613.283 688.191 609.522L686.337 610.272C688.071 614.555 691.592 618.231 696.775 621.513L697.845 619.824ZM688.205 609.559C686.755 605.516 685.862 602.508 685.499 600.503L683.531 600.86C683.925 603.035 684.865 606.17 686.323 610.235L688.205 609.559ZM685.499 600.503C683.934 591.864 684.578 579.066 695.024 564.429L693.396 563.267C682.611 578.379 681.877 591.734 683.531 600.86L685.499 600.503ZM695.024 564.429C705.449 549.821 725.14 536.954 756.832 531.212L756.476 529.244C724.423 535.052 704.203 548.124 693.396 563.267L695.024 564.429ZM756.832 531.212C757.547 531.083 758.124 530.983 758.71 531.022L758.841 529.026C757.97 528.969 757.154 529.121 756.476 529.244L756.832 531.212ZM758.954 531.008L759.999 530.818L759.642 528.85L758.597 529.04L758.954 531.008ZM760.74 530.226C767.228 515.004 776.93 504.546 791.806 501.85L791.449 499.883C775.672 502.741 765.54 513.865 758.9 529.442L760.74 530.226ZM791.806 501.85C797.613 500.798 801.921 501.256 805.039 502.999L806.014 501.253C802.327 499.192 797.485 498.789 791.449 499.883L791.806 501.85ZM805.009 502.981C806.696 504.001 807.97 504.927 808.875 505.8C809.78 506.674 810.268 507.448 810.464 508.158L812.392 507.625C812.067 506.451 811.321 505.381 810.264 504.361C809.207 503.341 807.792 502.326 806.044 501.27L805.009 502.981ZM810.464 508.158C810.727 509.106 810.966 509.927 811.148 510.562C811.338 511.224 811.45 511.638 811.487 511.839L813.455 511.482C813.396 511.16 813.248 510.632 813.071 510.011C812.885 509.364 812.651 508.562 812.392 507.625L810.464 508.158ZM811.487 511.839C811.896 514.096 811.64 516.612 810.575 518.668C809.527 520.691 807.681 522.305 804.781 522.83L805.138 524.798C808.681 524.156 811.033 522.131 812.351 519.588C813.651 517.079 813.929 514.102 813.455 511.482L811.487 511.839ZM805.529 522.992L804.089 521.994L802.949 523.638L804.39 524.636L805.529 522.992ZM803.954 521.915C801.715 520.835 797.794 519.239 792.782 520.147L793.139 522.115C797.533 521.319 800.987 522.704 803.085 523.717L803.954 521.915ZM792.782 520.147C788.53 520.918 785.2 523.939 782.939 529.032L784.767 529.843C786.849 525.155 789.728 522.733 793.139 522.115L792.782 520.147ZM783.698 530.425C796.957 532.497 806.006 536.333 810.975 541.958L812.474 540.634C807.033 534.475 797.405 530.542 784.007 528.449L783.698 530.425ZM810.975 541.958C816.106 547.767 818.977 553.18 819.881 558.166L821.849 557.81C820.859 552.346 817.753 546.61 812.474 540.634L810.975 541.958ZM819.881 558.166C820.417 561.124 820.248 565.876 819.066 572.162L821.031 572.531C822.231 566.154 822.449 561.121 821.849 557.81L819.881 558.166ZM819.066 572.162C817.955 578.068 812.313 584.704 801.444 592.056L802.565 593.713C813.489 586.323 819.76 579.289 821.031 572.531L819.066 572.162ZM801.839 593.871C810.917 595.395 817.868 599.206 822.783 605.259L824.336 603.998C819.064 597.507 811.644 593.489 802.17 591.899L801.839 593.871ZM822.765 605.236C827.625 611.594 830.829 618.591 832.283 626.613L834.251 626.256C832.738 617.907 829.397 610.619 824.354 604.022L822.765 605.236ZM832.283 626.613C832.407 627.301 832.91 630.075 833.617 634.969L835.597 634.683C834.885 629.76 834.378 626.962 834.251 626.256L832.283 626.613ZM833.617 634.969C834.297 639.668 833.452 646.501 830.97 655.552L832.899 656.081C835.4 646.961 836.337 639.801 835.597 634.683L833.617 634.969ZM830.968 655.56C828.548 664.67 824.312 672.506 818.287 679.254L819.779 680.586C826.016 673.6 830.402 665.483 832.901 656.073L830.968 655.56ZM818.278 679.265C812.339 686.121 804.694 690.316 795.322 692.014L795.678 693.982C805.464 692.209 813.529 687.802 819.789 680.575L818.278 679.265ZM795.322 692.014C786.195 693.668 779.356 692.945 774.585 689.924L773.515 691.614C778.904 695.026 786.344 695.674 795.678 693.982L795.322 692.014ZM774.585 689.924C769.575 686.751 766.709 683.694 765.633 680.458L763.735 681.089C765.029 684.979 768.365 688.353 773.515 691.614L774.585 689.924ZM765.645 680.498C764.645 677.005 763.855 674.56 763.614 673.232L761.646 673.589C761.91 675.048 762.764 677.702 763.722 681.049L765.645 680.498ZM763.614 673.232C762.11 664.932 763.63 653.947 769.714 644.956L768.057 643.835C761.655 653.296 760.058 664.821 761.646 673.589L763.614 673.232ZM769.72 644.947C772.704 640.431 776.318 637.949 780.531 637.186L780.174 635.218C775.33 636.096 771.279 638.96 768.051 643.844L769.72 644.947ZM779.422 636.57L779.754 637.409L781.614 636.673L781.282 635.834L779.422 636.57ZM779.766 637.436C780.28 638.632 781.395 640.639 783.833 642.075C786.279 643.515 789.916 644.3 795.313 643.322L794.957 641.354C789.904 642.269 786.782 641.49 784.848 640.351C782.907 639.208 782.021 637.62 781.603 636.646L779.766 637.436ZM795.313 643.322C800.725 642.341 804.455 639.981 806.194 636.243L804.38 635.4C803.012 638.34 799.995 640.441 794.957 641.354L795.313 643.322ZM806.194 636.243C807.811 632.766 808.378 629.404 807.828 626.367L805.86 626.723C806.32 629.259 805.869 632.198 804.38 635.4L806.194 636.243ZM807.828 626.367C807.554 624.854 806.756 622.565 805.517 619.717L803.683 620.515C804.91 623.337 805.629 625.45 805.86 626.723L807.828 626.367ZM805.494 619.668C804.693 618.073 803.274 616.575 801.335 615.152C799.391 613.725 796.872 612.336 793.801 610.978L792.992 612.808C795.982 614.129 798.362 615.451 800.152 616.764C801.948 618.082 803.099 619.356 803.706 620.565L805.494 619.668ZM793.767 610.964C787.328 608.397 778.767 607.954 768 609.543L768.292 611.521C778.899 609.956 787.056 610.442 793.026 612.822L793.767 610.964ZM767.159 610.37C763.146 634.802 757.106 658.796 746.122 679.003L747.88 679.958C759.021 659.46 765.106 635.208 769.133 610.694L767.159 610.37ZM746.12 679.007C735.206 699.317 718.855 713.784 694.128 718.265L694.484 720.232C719.916 715.624 736.734 700.698 747.882 679.954L746.12 679.007ZM694.128 718.265C681.541 720.545 671.192 719.749 662.796 715.852L661.954 717.666C670.842 721.791 681.643 722.559 694.484 720.232L694.128 718.265ZM662.787 715.848C654.141 711.945 647.677 706.264 643.379 698.983L641.656 699.999C646.183 707.668 652.979 713.615 661.964 717.671L662.787 715.848ZM771.574 591.847C780.338 588.798 786.783 584.322 790.586 578.376L788.902 577.299C785.416 582.747 779.412 587.002 770.917 589.958L771.574 591.847ZM790.597 578.36C794.153 572.554 795.604 566.844 794.632 561.482L792.664 561.838C793.523 566.578 792.276 571.79 788.891 577.315L790.597 578.36ZM794.632 561.482C794.463 560.548 793.893 558.433 792.95 555.205L791.03 555.765C791.983 559.029 792.518 561.031 792.664 561.838L794.632 561.482ZM792.937 555.163C792.255 553.161 790.583 551.422 788.154 549.916C785.715 548.405 782.412 547.066 778.288 545.902L777.744 547.827C781.772 548.963 784.879 550.24 787.101 551.617C789.332 552.999 790.571 554.421 791.043 555.807L792.937 555.163ZM777.036 546.667C775.044 556.592 773.309 567.903 771.542 581.002L773.524 581.269C775.289 568.186 777.018 556.923 778.997 547.061L777.036 546.667ZM771.546 580.976C771.036 584.137 770.555 587.486 770.249 590.811L772.241 590.994C772.541 587.734 773.014 584.435 773.521 581.295L771.546 580.976Z" fill="#D59B0B" mask="url(#path-15-outside-2_0_1)"/>
<path d="M504.229 497.606C503.502 495.579 502.981 493.695 502.603 491.605C501.687 486.554 501.897 480.76 503.405 474.191C504.738 467.653 508.431 461.228 514.308 454.946C520.217 448.839 528.832 444.76 539.804 442.772C566.277 437.975 587.659 447.772 607.268 457.71C618.388 447.601 632.863 440.121 650.453 436.934C661.426 434.946 670.133 435.347 676.954 438.248C683.601 441.181 687.985 444.524 689.961 448.483C691.938 452.442 693.06 455.657 693.533 458.269C694.101 461.404 694.099 465.362 693.32 470C692.542 474.638 689.816 479.449 685.317 484.402C680.818 489.354 674.721 492.438 666.883 493.858C647.551 497.36 631.644 491.968 617.257 485.041C612.898 493.746 609.536 502.989 607.488 512.534C605.44 522.079 604.47 529.63 604.863 534.776C605.113 540.127 605.427 543.847 605.774 545.763C606.752 551.162 608.681 555.849 611.766 559.968C614.85 564.086 619.789 565.529 626.93 564.235C648.526 560.322 651.492 525.068 651.611 510.835L651.504 505.278L683.724 499.44C683.851 500.137 697.352 634.221 602.781 651.357C588.5 653.944 576.943 653.7 568.079 650.449C559.042 647.23 552.902 643.126 549.659 638.137C546.385 632.974 544.282 628.318 543.525 624.138C543.083 621.7 542.943 617.948 543.342 613.198C543.709 608.275 546.198 603.147 550.745 597.467C555.323 591.96 561.705 588.465 569.891 586.982C578.773 585.373 589.523 586.123 602.072 594.822C598.315 602.878 599.991 606.172 600.022 606.346C601.19 612.79 607.093 616.578 621.026 614.053C628.341 612.728 634.454 608.742 639.397 602.27C644.167 595.829 648.129 587.916 651.174 578.91C643.998 585.966 635.716 590.885 625.44 592.747C615.513 594.545 606.996 593.21 599.89 588.742C592.785 584.273 587.406 578.412 583.959 571.302C580.655 563.986 578.284 556.86 577.054 550.068C576.454 546.759 575.856 541.47 575.258 534.204C574.835 526.905 576.044 517.692 578.822 506.216C581.631 494.914 586.165 484.199 592.804 474.182C582.912 470.218 572.639 468.122 560.97 470.236C558.009 470.773 555.586 472.291 553.843 474.585C552.1 476.88 551.197 478.842 551.307 480.441C551.385 481.866 551.543 482.737 551.606 483.085C552.395 487.44 556.144 491.257 566.594 489.364L566.83 491.66C567.349 497.502 565.092 512.841 538.619 517.637C529.736 519.247 522.502 518.039 516.536 513.904C510.602 509.942 506.568 504.557 504.229 497.606ZM648.938 455.376C641.449 456.733 634.813 460.814 629.031 467.618C639.128 471.724 649.433 473.994 659.883 472.101C666.327 470.933 669.544 465.854 668.787 461.674C668.755 461.499 668.455 460.834 668.234 459.615C667.839 458.428 666.161 457.113 663.028 455.702C659.894 454.291 655.208 454.24 648.938 455.376Z" fill="#D59B0B"/>
</svg>
